<svg xmlns="http://www.w3.org/2000/svg" xmlns:xlink="http://www.w3.org/1999/xlink" width="256" height="256" viewBox="0 0 256 256">
  <defs>
    <clipPath id="clip-Google_Pixel_5_2">
      <rect width="256" height="256"/>
    </clipPath>
  </defs>
  <g id="Google_Pixel_5_2" data-name="Google Pixel 5 – 2" clip-path="url(#clip-Google_Pixel_5_2)">
    <g id="Group_759" data-name="Group 759">
      <rect id="Rectangle_418" data-name="Rectangle 418" width="256" height="256" fill="none"/>
      <g id="Group_761" data-name="Group 761" transform="translate(67.792 61.483)">
        <g id="Group_759-2" data-name="Group 759" transform="translate(0 0)">
          <path id="Path_446" data-name="Path 446" d="M760.5,391.414V352.768a11.077,11.077,0,0,1,11.418-11.418h13.614c18.005,0,32.41,11.858,32.41,30.741s-14.4,30.742-32.41,30.742H771.918A11.076,11.076,0,0,1,760.5,391.414Zm25.647-8.256c6.587,0,11.418-4.217,11.418-11.067s-4.831-11.067-11.418-11.067h-5.271v22.135Z" transform="translate(-760.5 -340.119)" fill="#ff6e0c"/>
          <path id="Path_447" data-name="Path 447" d="M963.286,389.8V346.935c0-5.621,4.3-9.574,9.837-9.574,4.3,0,7.114,1.932,9.486,5.094l11.77,15.81a95.649,95.649,0,0,1,6.323,9.31v-18.8c0-6.675,3.513-11.418,10.188-11.418s10.188,4.743,10.188,11.418v42.95a9.42,9.42,0,0,1-9.75,9.574c-4.392,0-7.114-1.932-9.573-5.094L989.284,380.4c-1.844-2.372-3.952-5.534-5.621-8.169V389.8c0,6.763-3.513,11.505-10.188,11.505S963.286,396.561,963.286,389.8Z" transform="translate(-900.737 -337.361)" fill="#ff6e0c"/>
          <path id="Path_448" data-name="Path 448" d="M793.348,620.74l-8.082-9.837c-1.932-2.372-2.723-3.338-4.392-5.622v9.662c0,6.061-4.216,10.364-10.188,10.364S760.5,621,760.5,614.943V571.73c0-6.061,4.216-10.364,10.188-10.364s10.188,4.3,10.188,10.364v9.31c1.581-2.283,2.459-3.426,4.392-5.885l7.027-8.958c9.31-11.857,25.823,2.02,15.81,13.7L796.86,593.073l12.122,13.7C818.555,617.578,803.1,632.685,793.348,620.74Z" transform="translate(-760.498 -492.273)" fill="#ff6e0c"/>
          <path id="Path_449" data-name="Path 449" d="M961.535,613.8V570.935c0-5.622,4.3-9.574,9.837-9.574,4.3,0,7.115,1.932,9.486,5.094l11.77,15.81a95.854,95.854,0,0,1,6.323,9.31V572.78c0-6.675,3.513-11.418,10.188-11.418s10.189,4.743,10.189,11.418v42.95a9.42,9.42,0,0,1-9.75,9.574c-4.391,0-7.114-1.932-9.573-5.094L987.534,604.4c-1.845-2.372-3.953-5.534-5.622-8.168V613.8c0,6.763-3.513,11.505-10.188,11.505S961.535,620.56,961.535,613.8Z" transform="translate(-899.526 -492.27)" fill="#ff6e0c"/>
          <path id="Path_450" data-name="Path 450" d="M1179.8,561.546a9.063,9.063,0,0,1,7.986,7.319c.406,2.406-.161,5.542-1.246,9.357-1.042,3.664-2.106,7.039-4.441,9.084a7.45,7.45,0,0,1-5.913,1.758l-.087-.012a7.454,7.454,0,0,1-5.249-3.244c-1.72-2.585-1.866-6.12-1.914-9.93-.05-3.965.222-7.141,1.243-9.357a9.065,9.065,0,0,1,9.622-4.978" transform="translate(-1042.95 -492.335)" fill="#f20c90"/>
        </g>
        <g id="Group_760" data-name="Group 760" transform="translate(122.997 126.049)">
          <path id="Path_451" data-name="Path 451" d="M1166.188,749.391a3.462,3.462,0,1,1-3.461-3.368,3.413,3.413,0,0,1,3.461,3.368Zm-1.019,0a2.441,2.441,0,1,0-.715,1.728A2.443,2.443,0,0,0,1165.17,749.391Zm-1.175.842a.616.616,0,0,1,.147.361.476.476,0,0,1-.5.5.5.5,0,0,1-.407-.213l-.666-.9h-.13v.6a.5.5,0,1,1-1,0V748.2a.491.491,0,0,1,.509-.509h1a1.159,1.159,0,0,1,.7,2.072Zm-1.555-1.064h.287a.335.335,0,1,0,0-.667h-.287Z" transform="translate(-1159.265 -746.022)" fill="#ff6e0c"/>
        </g>
      </g>
    </g>
  </g>
</svg>
