<svg xmlns="http://www.w3.org/2000/svg" xmlns:xlink="http://www.w3.org/1999/xlink" width="115" height="115" viewBox="0 0 115 115">
  <defs>
    <clipPath id="clip-path">
      <rect id="Rectangle_421" data-name="Rectangle 421" width="115" height="115" transform="translate(-135 -270)" fill="#fff"/>
    </clipPath>
  </defs>
  <g id="Group_773" data-name="Group 773" transform="translate(135 270)">
    <g id="Group_772" data-name="Group 772">
      <g id="Group_771" data-name="Group 771" clip-path="url(#clip-path)">
        <g id="Group_770" data-name="Group 770">
          <g id="Group_769" data-name="Group 769" clip-path="url(#clip-path)">
            <path id="Path_448" data-name="Path 448" d="M-77.5-266.465a53.872,53.872,0,0,0-14.744,2.042,3.709,3.709,0,0,0-2.554,4.577,17.055,17.055,0,0,1,.63,4.65,17.536,17.536,0,0,1-15.644,17.474,3.707,3.707,0,0,0-3.2,2.8,12.548,12.548,0,0,1-12.219,9.558,11.425,11.425,0,0,1-1.149-.051,3.709,3.709,0,0,0-4.02,3.03,54.586,54.586,0,0,0-.87,9.69A53.83,53.83,0,0,0-77.5-158.927,53.829,53.829,0,0,0-23.732-212.7,53.829,53.829,0,0,0-77.5-266.465m24.588,46.432a2.749,2.749,0,0,1-2.738,2.528c-.074,0-.149,0-.225-.008a2.752,2.752,0,0,1-2.519-2.963l.838-10.37a2.754,2.754,0,0,1,2.963-2.52,2.75,2.75,0,0,1,2.519,2.963ZM-47-200.26a2.751,2.751,0,0,1,.359,3.872,2.746,2.746,0,0,1-2.118.994,2.739,2.739,0,0,1-1.755-.635l-6.215-5.159a2.75,2.75,0,0,1-.359-3.872,2.75,2.75,0,0,1,3.873-.36Zm-6.928-42.189a2.751,2.751,0,0,1,1.22,3.693,2.75,2.75,0,0,1-2.459,1.514,2.733,2.733,0,0,1-1.234-.294l-7.215-3.631a2.75,2.75,0,0,1-1.219-3.693,2.749,2.749,0,0,1,3.692-1.22ZM-73.8-251.481l7.439-6.211a2.748,2.748,0,0,1,3.874.348,2.751,2.751,0,0,1-.349,3.874l-7.439,6.211a2.744,2.744,0,0,1-1.762.639,2.745,2.745,0,0,1-2.112-.987,2.751,2.751,0,0,1,.349-3.874m-6.36,6.372a2.751,2.751,0,0,1,3.76.994l4.063,6.983a2.748,2.748,0,0,1-.994,3.759,2.734,2.734,0,0,1-1.38.374,2.748,2.748,0,0,1-2.379-1.367l-4.064-6.982a2.751,2.751,0,0,1,.994-3.761m-7.451-5.285,1.03-6.388a2.749,2.749,0,0,1,3.152-2.277,2.75,2.75,0,0,1,2.278,3.152l-1.03,6.388a2.751,2.751,0,0,1-2.712,2.312,2.758,2.758,0,0,1-.441-.035,2.75,2.75,0,0,1-2.277-3.152M-77.5-226.3a13.616,13.616,0,0,1,13.6,13.6,13.615,13.615,0,0,1-13.6,13.6,13.615,13.615,0,0,1-13.6-13.6,13.616,13.616,0,0,1,13.6-13.6m-24.57-1.939,3.624-8.711a2.752,2.752,0,0,1,3.6-1.483,2.751,2.751,0,0,1,1.483,3.595l-3.624,8.711a2.752,2.752,0,0,1-2.54,1.695,2.752,2.752,0,0,1-1.055-.212,2.749,2.749,0,0,1-1.483-3.595m-20.506,17.194a2.75,2.75,0,0,1-2.641-1.991,2.749,2.749,0,0,1,1.884-3.4l7.765-2.229a2.75,2.75,0,0,1,3.4,1.884,2.749,2.749,0,0,1-1.884,3.4l-7.764,2.229a2.747,2.747,0,0,1-.761.107m15.249,18.739-1.66,10.243a2.751,2.751,0,0,1-2.711,2.31,2.674,2.674,0,0,1-.443-.036,2.75,2.75,0,0,1-2.275-3.154l1.661-10.243a2.75,2.75,0,0,1,3.154-2.275,2.75,2.75,0,0,1,2.274,3.155m.89-6.876a2.743,2.743,0,0,1-2.126,1.005,2.742,2.742,0,0,1-1.744-.625l-6.24-5.124a2.75,2.75,0,0,1-.38-3.871,2.748,2.748,0,0,1,3.87-.379l6.241,5.124a2.75,2.75,0,0,1,.379,3.87m3.664-6.58c-.043,0-.086,0-.129,0a2.75,2.75,0,0,1-2.745-2.623l-.421-9.1a2.75,2.75,0,0,1,2.62-2.874,2.749,2.749,0,0,1,2.874,2.62l.421,9.1a2.751,2.751,0,0,1-2.62,2.874m2.213,13.016a2.747,2.747,0,0,1,1.634-3.528,2.748,2.748,0,0,1,3.529,1.634l2.783,7.584a2.751,2.751,0,0,1-1.635,3.529,2.755,2.755,0,0,1-.946.169,2.751,2.751,0,0,1-2.582-1.8Zm13.816,18.94-6.245,5.124a2.738,2.738,0,0,1-1.743.624,2.745,2.745,0,0,1-2.127-1.005,2.75,2.75,0,0,1,.381-3.871l6.245-5.124a2.75,2.75,0,0,1,3.87.382,2.749,2.749,0,0,1-.381,3.87m6.526-7.344a2.743,2.743,0,0,1-1.444.411A2.747,2.747,0,0,1-84-182.041a2.749,2.749,0,0,1,.893-3.785l6.872-4.246a2.751,2.751,0,0,1,3.785.894,2.75,2.75,0,0,1-.894,3.785Zm14.223,6.787-4.018,7.008a2.751,2.751,0,0,1-2.389,1.383,2.742,2.742,0,0,1-1.365-.366,2.749,2.749,0,0,1-1.018-3.754l4.019-7.007a2.751,2.751,0,0,1,3.754-1.018,2.75,2.75,0,0,1,1.017,3.754m8.03-9.259a2.726,2.726,0,0,1-1.081.223,2.751,2.751,0,0,1-2.53-1.669l-3.177-7.427a2.749,2.749,0,0,1,1.446-3.61,2.751,2.751,0,0,1,3.61,1.446l3.178,7.427a2.749,2.749,0,0,1-1.446,3.61m12.312,5.057-6.244,5.124a2.735,2.735,0,0,1-1.742.624,2.746,2.746,0,0,1-2.128-1.005,2.75,2.75,0,0,1,.382-3.871l6.244-5.124a2.75,2.75,0,0,1,3.87.382,2.749,2.749,0,0,1-.382,3.87m-.192-50.844a2.726,2.726,0,0,1-1.535-.471,2.75,2.75,0,0,1-.742-3.817l4.518-6.7a2.749,2.749,0,0,1,3.817-.742,2.751,2.751,0,0,1,.742,3.818l-4.518,6.7a2.747,2.747,0,0,1-2.282,1.212m5.019,22.967a2.586,2.586,0,0,1-.263-.013,2.749,2.749,0,0,1-2.477-3l1.033-10.863a2.752,2.752,0,0,1,3-2.478,2.751,2.751,0,0,1,2.477,3l-1.033,10.864a2.751,2.751,0,0,1-2.735,2.49m7.554,10.37A2.751,2.751,0,0,1-35.8-194.4a2.714,2.714,0,0,1-1.08-.223,2.749,2.749,0,0,1-1.448-3.609l3.177-7.428a2.753,2.753,0,0,1,3.609-1.446,2.749,2.749,0,0,1,1.448,3.609Z" fill="#fff"/>
          </g>
        </g>
      </g>
    </g>
  </g>
</svg>
