<svg xmlns="http://www.w3.org/2000/svg" xmlns:xlink="http://www.w3.org/1999/xlink" width="115" height="115" viewBox="0 0 115 115">
  <defs>
    <clipPath id="clip-path">
      <rect id="Rectangle_6" data-name="Rectangle 6" width="115" height="115" transform="translate(7084 -135)" fill="#fff"/>
    </clipPath>
  </defs>
  <g id="Group_15" data-name="Group 15" transform="translate(-7084 135)">
    <g id="Group_14" data-name="Group 14">
      <g id="Group_13" data-name="Group 13" clip-path="url(#clip-path)">
        <g id="Group_12" data-name="Group 12">
          <g id="Group_11" data-name="Group 11" clip-path="url(#clip-path)">
            <path id="Path_15" data-name="Path 15" d="M7141.5-131.269a53.875,53.875,0,0,0-14.744,2.042,3.709,3.709,0,0,0-2.554,4.577,17.06,17.06,0,0,1,.63,4.649,17.535,17.535,0,0,1-15.643,17.474,3.708,3.708,0,0,0-3.2,2.8,12.552,12.552,0,0,1-12.22,9.558c-.421,0-.808-.018-1.149-.052a3.713,3.713,0,0,0-4.02,3.03,54.56,54.56,0,0,0-.869,9.689A53.829,53.829,0,0,0,7141.5-23.732,53.829,53.829,0,0,0,7195.268-77.5a53.829,53.829,0,0,0-53.768-53.768m44.908,61.58-3.178,7.427a2.74,2.74,0,0,0,.789,3.2,46.412,46.412,0,0,1-2.433,4.794,2.7,2.7,0,0,0-.961.012,2.749,2.749,0,0,0-2.156,3.236l.229,1.146a46.789,46.789,0,0,1-4.455,5.155,2.751,2.751,0,0,0-.513-2.514,2.75,2.75,0,0,0-3.87-.381l-6.244,5.124a2.749,2.749,0,0,0-.382,3.87,2.73,2.73,0,0,0,1.892.981,46.3,46.3,0,0,1-6.312,3.127l-5.5-4.516a2.749,2.749,0,0,0-3.87.381,2.75,2.75,0,0,0,.382,3.871L7152.6-32.5a46.083,46.083,0,0,1-5.086.95,2.631,2.631,0,0,0-.5.044c-.038.007-.072.024-.109.033a46.635,46.635,0,0,1-5.407.325,46.4,46.4,0,0,1-8.245-.749l.762-2.162a2.749,2.749,0,0,0-1.68-3.507,2.751,2.751,0,0,0-3.508,1.68l-.948,2.693a46,46,0,0,1-5.691-2.184,2.683,2.683,0,0,0-.156-.885l-2.782-7.584a2.749,2.749,0,0,0-3.529-1.635,2.749,2.749,0,0,0-1.634,3.529l.893,2.436a46.747,46.747,0,0,1-4.939-3.981l.152-.806A2.749,2.749,0,0,0,7108-47.515a2.729,2.729,0,0,0-1.635.2,46.139,46.139,0,0,1-11.106-27.136l2.3.617a2.779,2.779,0,0,0,.712.093,2.75,2.75,0,0,0,2.655-2.04,2.751,2.751,0,0,0-1.946-3.367l-3.761-1.006q.076-1.333.227-2.666a19.946,19.946,0,0,0,11.095-4.533l1.983,3.487a2.747,2.747,0,0,0,2.393,1.392,2.734,2.734,0,0,0,1.356-.359,2.751,2.751,0,0,0,1.032-3.75l-2.884-5.074a19.884,19.884,0,0,0,2.008-3.882,24.816,24.816,0,0,0,6.643-2.436l-.886,2.131a2.751,2.751,0,0,0,1.483,3.6,2.752,2.752,0,0,0,1.055.211,2.749,2.749,0,0,0,2.54-1.694l3.624-8.712a2.741,2.741,0,0,0,.006-2.094,24.911,24.911,0,0,0,5.313-14.623l.368-.3a2.74,2.74,0,0,0,.538-3.618,46.827,46.827,0,0,1,8.382-.767c.217,0,.431.014.647.017a2.738,2.738,0,0,0,.9.323,2.751,2.751,0,0,0,.44.036,2.72,2.72,0,0,0,1.136-.259,46.261,46.261,0,0,1,8.012,1.244l-5.1,4.26a2.75,2.75,0,0,0-.349,3.873,2.747,2.747,0,0,0,2.113.987,2.739,2.739,0,0,0,1.761-.638l7.44-6.211a2.775,2.775,0,0,0,.274-.281,46.323,46.323,0,0,1,8.007,4.18l2.65,4.556a2.748,2.748,0,0,0,2.38,1.367,2.736,2.736,0,0,0,1.38-.373,2.728,2.728,0,0,0,.3-.22,46.209,46.209,0,0,1,14.358,33.49,46.487,46.487,0,0,1-.483,6.642,2.725,2.725,0,0,0-.961,1.17" fill="#fff"/>
            <path id="Path_16" data-name="Path 16" d="M7111.4-63.243a2.747,2.747,0,0,0-3.87.38,2.748,2.748,0,0,0,.38,3.87l6.24,5.124a2.734,2.734,0,0,0,1.744.625,2.743,2.743,0,0,0,2.126-1.005,2.749,2.749,0,0,0-.38-3.87Z" fill="#fff"/>
            <path id="Path_17" data-name="Path 17" d="M7113.481-72.492a2.75,2.75,0,0,0-3.4-1.884l-7.765,2.229a2.75,2.75,0,0,0-1.884,3.4,2.75,2.75,0,0,0,2.642,1.991,2.739,2.739,0,0,0,.76-.107l7.765-2.229a2.749,2.749,0,0,0,1.884-3.4" fill="#fff"/>
            <path id="Path_18" data-name="Path 18" d="M7159.3-59.459a2.751,2.751,0,0,0-3.61-1.446,2.75,2.75,0,0,0-1.447,3.61l3.178,7.427a2.751,2.751,0,0,0,2.529,1.668,2.736,2.736,0,0,0,1.081-.222,2.75,2.75,0,0,0,1.447-3.61Z" fill="#fff"/>
            <path id="Path_19" data-name="Path 19" d="M7179.467-87.594a2.745,2.745,0,0,0-3,2.478l-1.033,10.863a2.749,2.749,0,0,0,2.476,3q.133.012.264.012a2.75,2.75,0,0,0,2.734-2.49l1.034-10.863a2.75,2.75,0,0,0-2.477-3" fill="#fff"/>
            <path id="Path_20" data-name="Path 20" d="M7146.739-46.858a2.752,2.752,0,0,0-3.754,1.018l-4.019,7.008a2.751,2.751,0,0,0,1.018,3.754,2.739,2.739,0,0,0,1.365.365,2.751,2.751,0,0,0,2.388-1.382l4.02-7.009a2.751,2.751,0,0,0-1.018-3.754" fill="#fff"/>
            <path id="Path_21" data-name="Path 21" d="M7168.724-66.084a2.749,2.749,0,0,0-3.873.359,2.749,2.749,0,0,0,.359,3.872l6.214,5.16a2.75,2.75,0,0,0,1.755.633,2.743,2.743,0,0,0,2.119-.993,2.75,2.75,0,0,0-.36-3.872Z" fill="#fff"/>
            <path id="Path_22" data-name="Path 22" d="M7141.3-102.225a2.75,2.75,0,0,0,2.38,1.367,2.738,2.738,0,0,0,1.38-.373,2.751,2.751,0,0,0,.994-3.761l-4.063-6.982a2.749,2.749,0,0,0-3.76-.993,2.75,2.75,0,0,0-.994,3.76Z" fill="#fff"/>
            <path id="Path_23" data-name="Path 23" d="M7155.385-105.971l7.215,3.632a2.742,2.742,0,0,0,1.234.294,2.749,2.749,0,0,0,2.458-1.515,2.748,2.748,0,0,0-1.219-3.692l-7.215-3.632a2.749,2.749,0,0,0-3.693,1.221,2.75,2.75,0,0,0,1.22,3.692" fill="#fff"/>
            <path id="Path_24" data-name="Path 24" d="M7140.649-52.8a2.751,2.751,0,0,0-3.871-.381l-6.244,5.124a2.75,2.75,0,0,0-.381,3.87,2.743,2.743,0,0,0,2.127,1.006,2.746,2.746,0,0,0,1.744-.624l6.244-5.124a2.752,2.752,0,0,0,.381-3.871" fill="#fff"/>
            <path id="Path_25" data-name="Path 25" d="M7169.968-90.242a2.748,2.748,0,0,0,1.535.471,2.745,2.745,0,0,0,2.282-1.213l4.518-6.695a2.751,2.751,0,0,0-.741-3.818,2.75,2.75,0,0,0-3.818.742l-4.517,6.695a2.75,2.75,0,0,0,.741,3.818" fill="#fff"/>
            <path id="Path_26" data-name="Path 26" d="M7168.6-78.219a2.75,2.75,0,0,0-3.785-.894l-1.729,1.068a21.448,21.448,0,0,0-2.417-9.392l.5-6.159a2.751,2.751,0,0,0-2.52-2.963,2.75,2.75,0,0,0-2.963,2.519l-.02.252A21.508,21.508,0,0,0,7141.5-99.1a21.607,21.607,0,0,0-3.7.324l-.439-1.948a2.748,2.748,0,0,0-3.287-2.079,2.75,2.75,0,0,0-2.079,3.287l.535,2.375a21.655,21.655,0,0,0-12.393,16.468,2.741,2.741,0,0,0-2.316,2.829l.42,9.1a2.748,2.748,0,0,0,2.745,2.623l.129,0a2.721,2.721,0,0,0,1.645-.658,21.717,21.717,0,0,0,3.379,4.446l-1.434,2.371a2.751,2.751,0,0,0,.929,3.777,2.75,2.75,0,0,0,1.421.4,2.749,2.749,0,0,0,2.356-1.327l1.091-1.8a21.456,21.456,0,0,0,11,3.021,21.639,21.639,0,0,0,20.586-15.062l5.62-3.472a2.751,2.751,0,0,0,.894-3.785M7141.5-63.9a13.616,13.616,0,0,1-13.6-13.6,13.614,13.614,0,0,1,13.6-13.6,13.615,13.615,0,0,1,13.6,13.6,13.616,13.616,0,0,1-13.6,13.6" fill="#fff"/>
          </g>
        </g>
      </g>
    </g>
  </g>
</svg>
