<svg xmlns="http://www.w3.org/2000/svg" width="64.046" height="64.047" viewBox="0 0 64.046 64.047">
  <g id="Group_70" data-name="Group 70" transform="translate(0)">
    <g id="Icons_Logos" data-name="Icons &amp; Logos">
      <g id="Instagram">
        <path id="Path_80" data-name="Path 80" d="M807.754,120.462a16.638,16.638,0,0,0-12.592-15.528,21.6,21.6,0,0,0-5.588-.936c-.016,0-.032,0-.052,0H762.6c-.02,0-.036,0-.052,0a22.5,22.5,0,0,0-5.776,1.052c-7.168,1.992-12.824,8.5-12.82,17.552,0,.016,0,.032,0,.048v26.932c0,.02.008.036.008.056-.008,12.592,9.292,18.044,16.6,18.208,10.356.232,20.728.292,31.08-.016a16.631,16.631,0,0,0,16.124-16.116C808.07,141.306,808.082,130.87,807.754,120.462Zm-6,31.44c-.792,6.408-5.072,10.088-11.576,10.2q-14.106.246-28.224,0c-7.084-.132-11.756-4.82-11.876-11.9q-.24-14.112,0-28.232c.132-7.072,4.848-11.728,11.932-11.848q14.022-.228,28.06,0c7.148.116,11.7,4.816,12.008,11.976C802.178,124.446,802.394,146.67,801.754,151.9Z" transform="translate(-743.95 -103.994)" fill="#ff6e0c"/>
        <path id="Path_81" data-name="Path 81" d="M764.393,107.887A16.534,16.534,0,1,0,780.9,124.443,16.566,16.566,0,0,0,764.393,107.887Zm-.068,27.172a10.626,10.626,0,1,1,10.68-10.492A10.554,10.554,0,0,1,764.325,135.059Z" transform="translate(-732.277 -92.315)" fill="#ff6e0c" fill-rule="evenodd"/>
        <path id="Path_82" data-name="Path 82" d="M763.094,110.618a3.959,3.959,0,0,1-3.816,3.96,4.038,4.038,0,0,1-4-3.96,3.947,3.947,0,0,1,3.92-3.852A3.883,3.883,0,0,1,763.094,110.618Z" transform="translate(-709.966 -95.678)" fill="#ff6e0c" fill-rule="evenodd"/>
      </g>
    </g>
  </g>
</svg>
