<?xml version="1.0" encoding="UTF-8"?>
<svg id="Laag_2" data-name="Laag 2" xmlns="http://www.w3.org/2000/svg" viewBox="0 0 19.13 22.16">
  <g id="Layer_1" data-name="Layer 1">
    <path d="M19.13,.02C11.71-.23,5.62,2.51,5.62,2.51v13.9c-.76-.3-1.68-.37-2.61-.14-2.01,.49-3.33,2.18-2.94,3.77s2.33,2.49,4.34,2c1.9-.46,3.18-1.99,2.99-3.5V8.15s4.3-1.5,9.88-1.88v7.72c-.75-.29-1.65-.35-2.57-.13-2.01,.49-3.33,2.18-2.94,3.77,.39,1.59,2.33,2.49,4.34,2,1.76-.43,2.99-1.77,3.01-3.16h0S19.13,.02,19.13,.02h0Z"/>
  </g>
</svg>