<svg xmlns="http://www.w3.org/2000/svg" xmlns:xlink="http://www.w3.org/1999/xlink" width="115" height="115" viewBox="0 0 115 115">
  <defs>
    <clipPath id="clip-path">
      <rect id="Rectangle_74" data-name="Rectangle 74" width="115" height="115" transform="translate(11674 -135)" fill="#fff"/>
    </clipPath>
  </defs>
  <g id="Group_185" data-name="Group 185" transform="translate(-11674 135)">
    <g id="Group_184" data-name="Group 184">
      <g id="Group_183" data-name="Group 183" clip-path="url(#clip-path)">
        <g id="Group_182" data-name="Group 182">
          <g id="Group_181" data-name="Group 181" clip-path="url(#clip-path)">
            <path id="Path_205" data-name="Path 205" d="M11760.459-89.827l8.512-22.525a12.336,12.336,0,0,0-.249-9.51,12.348,12.348,0,0,0-6.9-6.55l-.157-.06a12.342,12.342,0,0,0-9.511.249,12.354,12.354,0,0,0-6.55,6.9l-6.628,17.26-6.309-17.224a12.443,12.443,0,0,0-15.794-7.705l-.168.058a12.443,12.443,0,0,0-7.7,15.8l6.93,20.123a12.765,12.765,0,0,0-4.153.617l-.159.052a12.512,12.512,0,0,0-7.107,5.775,11.48,11.48,0,0,0-1.478,5.382,12.7,12.7,0,0,0-4.9.584l-.159.052c-6.406,2.08-10.011,8.733-8.031,14.833l4.171,12.853a11.243,11.243,0,0,0,5.734,6.606c5.662,12.908,17.515,20.925,31.733,20.925h3.5a38.569,38.569,0,0,0,38.524-38.526v-10.1a16.18,16.18,0,0,0-13.145-15.867m-17.3-2.814,9.913-25.814a4.4,4.4,0,0,1,2.334-2.46,4.41,4.41,0,0,1,3.391-.088l.158.061a4.411,4.411,0,0,1,2.46,2.333,4.421,4.421,0,0,1,.08,3.409l-9.479,25.08h-9.825Zm-23.857-28.728.168-.057a4.457,4.457,0,0,1,5.658,2.818l9.487,25.9,1.04,2.841a11.523,11.523,0,0,0-8,6.341l-11.093-32.212a4.434,4.434,0,0,1,2.736-5.63m13.845,55.2-.808-2.487a11.4,11.4,0,0,0,5.7,1.53h.4a27.222,27.222,0,0,0-5.575,8.616,11.178,11.178,0,0,0,.285-7.659m-21.653-16.489a4.54,4.54,0,0,1,2.591-2.07l.16-.052a4.855,4.855,0,0,1,1.493-.24,4.3,4.3,0,0,1,1.82.4,3.346,3.346,0,0,1,1.835,1.991l6.145,18.933a3.352,3.352,0,0,1-.316,2.69,4.535,4.535,0,0,1-2.592,2.07l-.159.052c-2.22.719-4.528-.24-5.147-2.141l0-.005-2.76-8.5-3.384-10.43a3.357,3.357,0,0,1,.316-2.69m-11.054,9.724.158-.052a4.51,4.51,0,0,1,3.3.156,3.359,3.359,0,0,1,1.834,2l.261.8,3.725,11.482.186.568a3.359,3.359,0,0,1-.313,2.692,4.507,4.507,0,0,1-2.578,2.062l-.159.052a4.85,4.85,0,0,1-.97.2,4.379,4.379,0,0,1-2.328-.357,3.362,3.362,0,0,1-1.834-2l-.812-2.506-3.358-10.347a3.962,3.962,0,0,1,2.892-4.754m65.164,9.081a30.559,30.559,0,0,1-30.524,30.526h-3.5a25.647,25.647,0,0,1-22.345-12.214c.027-.008.058-.015.086-.024l.158-.052a12.481,12.481,0,0,0,7.1-5.775c.011-.021.019-.043.031-.064a12.391,12.391,0,0,0,4.391.8,12.757,12.757,0,0,0,3.941-.628l.158-.052a12.512,12.512,0,0,0,7.107-5.775c.186-.333.351-.673.5-1.016a29.215,29.215,0,0,0-1.978,10.654v2.007a4,4,0,0,0,3.975,4h.025a4,4,0,0,0,4-4v-2.007a20.32,20.32,0,0,1,5.3-13.995,17.935,17.935,0,0,1,13.258-5.662,4,4,0,0,0,4-4,4,4,0,0,0-4-4h-19.248a3.5,3.5,0,0,1-3.5-3.5,3.5,3.5,0,0,1,3.5-3.494h19.4a8.168,8.168,0,0,1,8.159,8.16Z" fill="#fff"/>
          </g>
        </g>
      </g>
    </g>
  </g>
</svg>
