<svg xmlns="http://www.w3.org/2000/svg" xmlns:xlink="http://www.w3.org/1999/xlink" width="203.177" height="60.689" viewBox="0 0 203.177 60.689">
  <defs>
    <clipPath id="clip-path">
      <path id="Path_356" data-name="Path 356" d="M0,0H203.177V60.689H0ZM0,0"/>
    </clipPath>
  </defs>
  <g id="Group_759" data-name="Group 759" transform="translate(-721 -2087.656)">
    <path id="Path_354" data-name="Path 354" d="M195.59,59.1H7.7A6.892,6.892,0,0,1,.809,52.208V7.7A6.892,6.892,0,0,1,7.7.8H195.59A6.892,6.892,0,0,1,202.483,7.7v44.51A6.892,6.892,0,0,1,195.59,59.1" transform="translate(720.946 2087.603)"/>
    <g id="Group_579" data-name="Group 579" transform="translate(721 2087.656)" clip-path="url(#clip-path)">
      <path id="Path_355" data-name="Path 355" d="M7.644,1.506A6.145,6.145,0,0,0,1.506,7.644v44.51a6.145,6.145,0,0,0,6.138,6.138H195.536a6.145,6.145,0,0,0,6.138-6.138V7.644a6.145,6.145,0,0,0-6.138-6.138ZM195.536,59.8H7.644A7.655,7.655,0,0,1,0,52.154V7.644A7.655,7.655,0,0,1,7.644,0H195.536a7.655,7.655,0,0,1,7.644,7.648v44.51a7.655,7.655,0,0,1-7.644,7.648" transform="translate(0 0)" fill="#a7a9ab"/>
    </g>
    <path id="Path_357" data-name="Path 357" d="M75.069,16.358,74.3,13.936c-.19-.6-.35-1.266-.5-1.835h-.029c-.142.569-.292,1.251-.463,1.835l-.759,2.422Zm-2.812,1.353L71.411,20.5H69.559l3.151-9.825H75L78.188,20.5H76.266l-.89-2.786" transform="translate(716.387 2086.948)" fill="#fff"/>
    <path id="Path_358" data-name="Path 358" d="M81.534,13.594l1.153,3.6c.2.627.346,1.2.478,1.78h.044c.131-.584.292-1.138.481-1.78l1.138-3.6h1.878L84,20.691H82.234l-2.641-7.1" transform="translate(715.721 2086.754)" fill="#fff"/>
    <path id="Path_359" data-name="Path 359" d="M92.7,17.208c-1.269-.015-2.48.248-2.48,1.328a.942.942,0,0,0,1.021,1.021,1.468,1.468,0,0,0,1.411-.977,1.123,1.123,0,0,0,.047-.394Zm1.747,1.765a9.513,9.513,0,0,0,.117,1.7H92.946l-.128-.784h-.047a2.592,2.592,0,0,1-2.1.945,2.1,2.1,0,0,1-2.228-2.112c0-1.78,1.587-2.7,4.209-2.681v-.117c0-.467-.186-1.24-1.441-1.24a3.763,3.763,0,0,0-1.911.525l-.35-1.167a5.119,5.119,0,0,1,2.568-.624c2.272,0,2.929,1.441,2.929,3" transform="translate(715.134 2086.766)" fill="#fff"/>
    <path id="Path_360" data-name="Path 360" d="M97.583,13.383h1.791v7.1H97.583Zm.886-1.021a1.013,1.013,0,1,1,.018,0" transform="translate(714.535 2086.965)" fill="#fff"/>
    <path id="Path_361" data-name="Path 361" d="M102.27,20.459h1.794V10.094H102.27Zm0,0" transform="translate(714.217 2086.986)" fill="#fff"/>
    <path id="Path_362" data-name="Path 362" d="M110.694,17.208c-1.269-.015-2.48.248-2.48,1.328a.942.942,0,0,0,1.021,1.021,1.473,1.473,0,0,0,1.415-.977,1.212,1.212,0,0,0,.044-.394Zm1.747,1.765a9.512,9.512,0,0,0,.117,1.7h-1.616l-.131-.784h-.044a2.6,2.6,0,0,1-2.1.945,2.105,2.105,0,0,1-2.228-2.112c0-1.78,1.59-2.7,4.212-2.681v-.117c0-.467-.19-1.24-1.444-1.24a3.739,3.739,0,0,0-1.907.525l-.35-1.167a5.1,5.1,0,0,1,2.564-.624c2.272,0,2.929,1.441,2.929,3" transform="translate(713.941 2086.766)" fill="#fff"/>
    <path id="Path_363" data-name="Path 363" d="M117.372,17.527a1.98,1.98,0,0,0,.044.423A1.638,1.638,0,0,0,119,19.2c1.123,0,1.809-.89,1.809-2.331,0-1.255-.6-2.276-1.794-2.276a1.664,1.664,0,0,0-1.587,1.313,2.144,2.144,0,0,0-.058.467Zm-1.794-7.433h1.794v4.242h.029a2.561,2.561,0,0,1,2.272-1.134c1.736,0,2.972,1.441,2.958,3.6,0,2.549-1.616,3.819-3.22,3.819a2.439,2.439,0,0,1-2.243-1.225h-.029l-.088,1.065H115.52c.029-.481.058-1.269.058-1.984" transform="translate(713.338 2086.986)" fill="#fff"/>
    <path id="Path_364" data-name="Path 364" d="M125.4,20.459h1.791V10.094H125.4Zm0,0" transform="translate(712.683 2086.986)" fill="#fff"/>
    <path id="Path_365" data-name="Path 365" d="M134.449,16.38a1.527,1.527,0,0,0-1.47-1.736,1.756,1.756,0,0,0-1.649,1.736Zm-3.118,1.251a1.93,1.93,0,0,0,2.188,1.838,5.717,5.717,0,0,0,1.966-.321l.263,1.222a6.308,6.308,0,0,1-2.476.452,3.357,3.357,0,0,1-3.662-3.582,3.515,3.515,0,0,1,3.472-3.819c2.3,0,3.06,1.893,3.06,3.454a4.332,4.332,0,0,1-.058.755" transform="translate(712.404 2086.766)" fill="#fff"/>
    <path id="Path_366" data-name="Path 366" d="M145.884,19.542c1.018,0,1.732-.992,1.732-2.433,0-1.109-.5-2.393-1.718-2.393-1.269,0-1.78,1.24-1.78,2.422,0,1.368.686,2.4,1.747,2.4Zm-.058,1.3a3.431,3.431,0,0,1-3.556-3.658,3.5,3.5,0,0,1,3.673-3.76,3.4,3.4,0,0,1,3.527,3.644,3.514,3.514,0,0,1-3.629,3.775" transform="translate(711.564 2086.766)" fill="#fff"/>
    <path id="Path_367" data-name="Path 367" d="M152.234,15.694c0-.817-.026-1.5-.055-2.115h1.557l.088,1.065h.044a2.606,2.606,0,0,1,2.276-1.222c1.236,0,2.52.8,2.52,3.045v4.209H156.87v-4c0-1.021-.379-1.794-1.353-1.794a1.506,1.506,0,0,0-1.4,1.05,1.666,1.666,0,0,0-.088.569v4.18h-1.794" transform="translate(710.907 2086.766)" fill="#fff"/>
    <path id="Path_368" data-name="Path 368" d="M167.776,11.641v1.82h1.7V14.8h-1.7v3.118c0,.875.233,1.313.915,1.313a2.337,2.337,0,0,0,.7-.073l.029,1.353a3.842,3.842,0,0,1-1.3.19,2.064,2.064,0,0,1-1.543-.58,2.8,2.8,0,0,1-.569-2V14.8H165V13.461h1.007V12.137" transform="translate(710.056 2086.884)" fill="#fff"/>
    <path id="Path_369" data-name="Path 369" d="M171.934,10.094h1.794v4.227h.029a2.361,2.361,0,0,1,.89-.8,2.553,2.553,0,0,1,1.236-.317c1.211,0,2.476.8,2.476,3.075v4.183h-1.791V16.465c0-1.021-.379-1.809-1.371-1.809a1.5,1.5,0,0,0-1.4,1.007,1.611,1.611,0,0,0-.073.54v4.256h-1.794" transform="translate(709.597 2086.986)" fill="#fff"/>
    <path id="Path_370" data-name="Path 370" d="M185.9,16.38a1.527,1.527,0,0,0-1.473-1.736,1.752,1.752,0,0,0-1.645,1.736Zm-3.118,1.251a1.927,1.927,0,0,0,2.185,1.838,5.685,5.685,0,0,0,1.966-.321l.266,1.222a6.314,6.314,0,0,1-2.48.452,3.356,3.356,0,0,1-3.658-3.582c0-1.969,1.2-3.819,3.468-3.819,2.3,0,3.06,1.893,3.06,3.454a4.333,4.333,0,0,1-.058.755" transform="translate(708.991 2086.766)" fill="#fff"/>
    <path id="Path_371" data-name="Path 371" d="M46.709,30.6a8.732,8.732,0,0,1,4.165-7.338,8.953,8.953,0,0,0-7.057-3.815c-2.965-.31-5.843,1.78-7.353,1.78-1.543,0-3.873-1.747-6.379-1.7a9.4,9.4,0,0,0-7.907,4.822c-3.414,5.919-.868,14.614,2.407,19.4,1.641,2.341,3.552,4.96,6.058,4.865,2.451-.1,3.366-1.561,6.324-1.561,2.932,0,3.793,1.561,6.35,1.5,2.63-.044,4.285-2.352,5.865-4.719a19.234,19.234,0,0,0,2.684-5.463A8.456,8.456,0,0,1,46.709,30.6" transform="translate(719.637 2086.368)" fill="#fff"/>
    <path id="Path_372" data-name="Path 372" d="M42.985,15.648a8.6,8.6,0,0,0,1.969-6.171,8.785,8.785,0,0,0-5.668,2.932,8.187,8.187,0,0,0-2.021,5.941,7.233,7.233,0,0,0,5.719-2.7" transform="translate(718.531 2087.027)" fill="#fff"/>
    <path id="Path_373" data-name="Path 373" d="M79.461,40.511l-1.692-5.226q-.268-.8-1.01-3.768H76.7c-.2.85-.518,2.108-.952,3.768l-1.663,5.226Zm5.85,8.348H81.894L80.023,42.98h-6.5L71.74,48.859H68.414l6.448-20.016h3.975" transform="translate(716.463 2085.743)" fill="#fff"/>
    <path id="Path_374" data-name="Path 374" d="M100.007,41.959a5.942,5.942,0,0,0-.952-3.476,3.286,3.286,0,0,0-2.79-1.426,3.328,3.328,0,0,0-2.152.788,3.691,3.691,0,0,0-1.266,2.068,4.164,4.164,0,0,0-.146.974v2.407a3.858,3.858,0,0,0,.963,2.659,3.2,3.2,0,0,0,2.509,1.083,3.263,3.263,0,0,0,2.819-1.4,6.1,6.1,0,0,0,1.014-3.68m3.268-.12a8.2,8.2,0,0,1-1.991,5.821,5.817,5.817,0,0,1-4.424,1.9,4.427,4.427,0,0,1-4.1-2.05H92.7v7.6h-3.21V39.552q0-2.314-.117-4.752h2.819l.179,2.29h.062a5.7,5.7,0,0,1,9.129-.565,7.962,7.962,0,0,1,1.711,5.314" transform="translate(715.072 2085.367)" fill="#fff"/>
    <path id="Path_375" data-name="Path 375" d="M117.784,41.959a5.942,5.942,0,0,0-.952-3.476,3.286,3.286,0,0,0-2.79-1.426,3.335,3.335,0,0,0-2.152.788,3.641,3.641,0,0,0-1.258,2.068,4.01,4.01,0,0,0-.15.974v2.407a3.856,3.856,0,0,0,.959,2.659,3.2,3.2,0,0,0,2.513,1.083,3.271,3.271,0,0,0,2.819-1.4,6.15,6.15,0,0,0,1.01-3.68m3.264-.12a8.2,8.2,0,0,1-1.988,5.821,5.812,5.812,0,0,1-4.424,1.9,4.435,4.435,0,0,1-4.1-2.05h-.055v7.6h-3.21V39.552q0-2.314-.117-4.752h2.819l.179,2.29h.062a5.7,5.7,0,0,1,9.129-.565,7.959,7.959,0,0,1,1.7,5.314" transform="translate(713.893 2085.367)" fill="#fff"/>
    <path id="Path_376" data-name="Path 376" d="M141.036,43.225a5.338,5.338,0,0,1-1.78,4.158,7.884,7.884,0,0,1-5.449,1.751,9.569,9.569,0,0,1-5.194-1.247l.744-2.67A8.816,8.816,0,0,0,134,46.489a4.387,4.387,0,0,0,2.823-.813,2.68,2.68,0,0,0,1.007-2.188A2.794,2.794,0,0,0,137,41.434a7.8,7.8,0,0,0-2.765-1.546q-5.257-1.964-5.256-5.741A5.079,5.079,0,0,1,130.82,30.1a7.272,7.272,0,0,1,4.9-1.579,9.744,9.744,0,0,1,4.544.952l-.8,2.615a7.888,7.888,0,0,0-3.83-.923A3.866,3.866,0,0,0,132.99,32a2.389,2.389,0,0,0-.8,1.813,2.436,2.436,0,0,0,.919,1.959,10.456,10.456,0,0,0,2.91,1.546,9.868,9.868,0,0,1,3.8,2.433,5.109,5.109,0,0,1,1.218,3.476" transform="translate(712.47 2085.764)" fill="#fff"/>
    <path id="Path_377" data-name="Path 377" d="M152.645,36.972h-3.534v7.006q0,2.675,1.875,2.673a5.761,5.761,0,0,0,1.422-.146l.088,2.433A7.123,7.123,0,0,1,150,49.3a3.86,3.86,0,0,1-2.972-1.156,5.7,5.7,0,0,1-1.069-3.892V36.972h-2.108V34.565h2.108V31.925l3.148-.952v3.592h3.534" transform="translate(711.459 2085.602)" fill="#fff"/>
    <path id="Path_378" data-name="Path 378" d="M166.021,42a6.5,6.5,0,0,0-.864-3.425,3.16,3.16,0,0,0-2.878-1.729,3.213,3.213,0,0,0-2.94,1.729,6.626,6.626,0,0,0-.857,3.487,6.475,6.475,0,0,0,.857,3.421,3.237,3.237,0,0,0,2.914,1.729,3.2,3.2,0,0,0,2.878-1.758,6.483,6.483,0,0,0,.89-3.454m3.326-.1a7.906,7.906,0,0,1-1.9,5.463,6.781,6.781,0,0,1-5.285,2.2,6.461,6.461,0,0,1-5.066-2.108,7.68,7.68,0,0,1-1.882-5.314,7.829,7.829,0,0,1,1.944-5.493A6.715,6.715,0,0,1,162.4,34.5a6.6,6.6,0,0,1,5.11,2.108,7.614,7.614,0,0,1,1.842,5.288" transform="translate(710.706 2085.367)" fill="#fff"/>
    <path id="Path_379" data-name="Path 379" d="M180.967,37.622a5.572,5.572,0,0,0-1.01-.088,3.037,3.037,0,0,0-2.615,1.277,4.82,4.82,0,0,0-.8,2.848v7.575h-3.206l.026-9.887q0-2.5-.117-4.548h2.794l.117,2.765h.084a4.959,4.959,0,0,1,1.6-2.287,3.9,3.9,0,0,1,2.32-.773,5.306,5.306,0,0,1,.8.058" transform="translate(709.51 2085.367)" fill="#fff"/>
    <path id="Path_380" data-name="Path 380" d="M192.9,40.5a4.359,4.359,0,0,0-.62-2.465,2.81,2.81,0,0,0-2.557-1.339,3.051,3.051,0,0,0-2.553,1.309,4.735,4.735,0,0,0-.945,2.495Zm3.056.832a7.828,7.828,0,0,1-.113,1.455H186.23a4.167,4.167,0,0,0,1.393,3.268,4.752,4.752,0,0,0,3.148,1.007,10.646,10.646,0,0,0,3.892-.682l.5,2.228a12.136,12.136,0,0,1-4.843.894,6.99,6.99,0,0,1-5.27-1.98,7.3,7.3,0,0,1-1.915-5.3,8.249,8.249,0,0,1,1.783-5.434,6.134,6.134,0,0,1,5.044-2.316,5.377,5.377,0,0,1,4.727,2.316,7.786,7.786,0,0,1,1.269,4.544" transform="translate(708.854 2085.37)" fill="#fff"/>
  </g>
</svg>
