<svg xmlns="http://www.w3.org/2000/svg" xmlns:xlink="http://www.w3.org/1999/xlink" width="115" height="115" viewBox="0 0 115 115">
  <defs>
    <clipPath id="clip-path">
      <rect id="Rectangle_88" data-name="Rectangle 88" width="115" height="115" transform="translate(12619 -135)" fill="#fff"/>
    </clipPath>
  </defs>
  <g id="Group_220" data-name="Group 220" transform="translate(-12619 135)">
    <g id="Group_219" data-name="Group 219">
      <g id="Group_218" data-name="Group 218" clip-path="url(#clip-path)">
        <g id="Group_217" data-name="Group 217">
          <g id="Group_216" data-name="Group 216" clip-path="url(#clip-path)">
            <path id="Path_230" data-name="Path 230" d="M12727.1-109.41h-83.584a4,4,0,0,0-4,4,4,4,0,0,0,4,4h23.763v51.821a4,4,0,0,0,4,4h55.821a4,4,0,0,0,4-4V-105.41a4,4,0,0,0-4-4m-32.711,8h9.6v15.873l-3.323-1.321a4,4,0,0,0-1.477-.283,4.019,4.019,0,0,0-1.479.283l-3.322,1.321Zm28.711,47.821h-47.821V-101.41h11.11v21.768a4,4,0,0,0,1.754,3.31,4,4,0,0,0,3.725.407l7.322-2.911,7.321,2.911a4,4,0,0,0,1.479.283,4,4,0,0,0,2.246-.69,4,4,0,0,0,1.754-3.31V-101.41h11.11Z" fill="#fff"/>
            <path id="Path_231" data-name="Path 231" d="M12660.244-94.849H12625.9a4,4,0,0,0-4,4,4,4,0,0,0,4,4h34.347a4,4,0,0,0,4-4,4,4,0,0,0-4-4" fill="#fff"/>
            <path id="Path_232" data-name="Path 232" d="M12660.244-81.5h-15.186a4,4,0,0,0-4,4,4,4,0,0,0,4,4h15.186a4,4,0,0,0,4-4,4,4,0,0,0-4-4" fill="#fff"/>
            <path id="Path_233" data-name="Path 233" d="M12660.244-68.817h-23.574a4,4,0,0,0-4,4,4,4,0,0,0,4,4h23.574a4,4,0,0,0,4-4,4,4,0,0,0-4-4" fill="#fff"/>
            <path id="Path_234" data-name="Path 234" d="M12660.244-58.694h-11.787a4,4,0,0,0-4,4,4,4,0,0,0,4,4h11.787a4,4,0,0,0,4-4,4,4,0,0,0-4-4" fill="#fff"/>
          </g>
        </g>
      </g>
    </g>
  </g>
</svg>
