<svg xmlns="http://www.w3.org/2000/svg" width="864.005" height="154.96" viewBox="0 0 864.005 154.96">
  <g id="Master_Logo_Artwork" data-name="Master Logo Artwork" transform="translate(-30 -16100)">
    <path id="fullLogo" d="M0,124.29V30.65C0,14.69,11.71,3,27.67,3h33C104.3,3,139.2,31.73,139.2,77.49S104.29,152,60.66,152h-33C11.71,152,0,140.26,0,124.29Zm62.15-20c16,0,27.67-10.22,27.67-26.82S78.11,50.65,62.15,50.65H49.38v53.64Z" transform="translate(30 16100)" fill="#ff6e0c"/>
    <path id="fullLogo-2" data-name="fullLogo" d="M152,91.09v-66C152,10.64,162.39,0,176.65,0s24.69,10.64,24.69,25.11V89.39c0,9.79,7.24,16.6,15.75,16.6s15.75-6.81,15.75-16.6V25.11C232.84,10.64,243.27,0,257.53,0s24.69,10.64,24.69,25.11v66c0,36.82-26,63.85-65.13,63.85S152,127.91,152,91.09Z" transform="translate(30 16100)" fill="#ff6e0c"/>
    <path id="fullLogo-3" data-name="fullLogo" d="M299.25,127.06V23.2C299.25,9.58,309.67,0,323.08,0c10.43,0,17.24,4.68,23,12.34L374.6,50.65a233.141,233.141,0,0,1,15.32,22.56V27.67C389.91,11.49,398.43,0,414.6,0s24.69,11.49,24.69,27.67V131.74c0,13.63-10.43,23.2-23.62,23.2-10.65,0-17.24-4.68-23.2-12.34l-30.23-38.31c-4.46-5.75-9.57-13.41-13.62-19.8v42.57c0,16.39-8.51,27.88-24.69,27.88S299.25,143.45,299.25,127.06Z" transform="translate(30 16100)" fill="#ff6e0c"/>
    <path id="fullLogo-4" data-name="fullLogo" d="M535.92,143.88,516.34,120c-4.68-5.75-6.6-8.09-10.64-13.62v23.41c0,14.68-10.22,25.11-24.69,25.11s-24.69-10.43-24.69-25.11V25.11C456.32,10.43,466.54,0,481,0s24.7,10.43,24.7,25.11V47.68c3.83-5.54,6-8.31,10.64-14.27l17-21.7c22.56-28.74,62.57,4.89,38.31,33.2L544.43,76.83,573.8,110C597,136.21,559.54,172.82,535.92,143.88Z" transform="translate(30 16100)" fill="#ff6e0c"/>
    <path id="fullLogo-5" data-name="fullLogo" d="M596.58,129.83V25.11C596.58,10.43,606.79,0,621.27,0S646,10.43,646,25.11V129.83c0,14.68-10.21,25.11-24.68,25.11S596.58,144.51,596.58,129.83Z" transform="translate(30 16100)" fill="#ff6e0c"/>
    <path id="fullLogo-6" data-name="fullLogo" d="M663,127.06V23.2C663,9.58,673.41,0,686.82,0c10.43,0,17.24,4.68,23,12.34l28.52,38.31a235,235,0,0,1,15.33,22.56V27.67C753.65,11.49,762.16,0,778.34,0S803,11.49,803,27.67V131.74c0,13.63-10.42,23.2-23.62,23.2-10.64,0-17.24-4.68-23.2-12.34L726,104.29c-4.47-5.75-9.58-13.41-13.62-19.8v42.57c0,16.39-8.52,27.88-24.69,27.88S663,143.45,663,127.06Z" transform="translate(30 16100)" fill="#ff6e0c"/>
    <path id="fullLogo-7" data-name="fullLogo" d="M844.33.29c8.56,1.12,17.55,7.08,19.35,17.73,1,5.83-.39,13.43-3,22.68-2.52,8.87-5.1,17-10.76,22A18.07,18.07,0,0,1,835.57,67h-.21a18,18,0,0,1-12.72-7.86C818.47,52.82,818.12,44.25,818,35c-.12-9.61.54-17.3,3-22.67C825.53,2.54,835.77-.86,844.33.29" transform="translate(30 16100)" fill="#f20c90"/>
    <path id="fullLogo-8" data-name="fullLogo" d="M830.66,144.11a9.6,9.6,0,1,1-9.6-9.34,9.47,9.47,0,0,1,9.6,9.34Zm-2.83,0a6.76,6.76,0,1,0-1.98,4.79,6.77,6.77,0,0,0,1.98-4.79Zm-3.25,2.33a1.75,1.75,0,0,1,.41,1,1.33,1.33,0,0,1-1.39,1.39,1.39,1.39,0,0,1-1.13-.59l-1.85-2.49h-.36v1.67a1.39,1.39,0,1,1-2.77,0V140.8a1.36,1.36,0,0,1,1.41-1.41h2.78a3.21,3.21,0,0,1,2,5.74Zm-4.32-2.95h.8a.93.93,0,1,0,0-1.85h-.8Z" transform="translate(30 16100)" fill="#ff6e0c"/>
  </g>
</svg>
