<svg id="Group_54" data-name="Group 54" xmlns="http://www.w3.org/2000/svg" width="29.648" height="64" viewBox="0 0 29.648 64">
  <g id="Icons_Logos" data-name="Icons &amp; Logos">
    <path id="Facebook" d="M969.81,61.916c-.288,3-.584,6.008-.808,9.012-.06.752-.4.876-1.036.868-2.352-.02-4.7.02-7.048-.02-.76-.012-.968.252-.964.984.028,5.032.012,10.064.012,15.1s0,10.072,0,15.1c0,1.008-.024,1.04-1.048,1.04H948c-1.044,0-1.068-.024-1.068-1.108V73.232c0-1.288,0-1.288-1.248-1.288-1.528,0-3.047-.02-4.572.008-.64.016-.864-.224-.856-.856.025-3.128.025-6.244,0-9.372,0-.656.264-.84.88-.832,1.652.028,3.3-.016,4.96.02.636.012.86-.212.852-.848-.024-2.66-.044-5.32,0-7.98.048-3,.612-5.856,2.668-8.212a11.175,11.175,0,0,1,6.376-3.4,22.305,22.305,0,0,1,4.92-.468q4.02.024,8.052-.008c.712-.012.944.236.936.944-.028,3.148-.032,6.3,0,9.448.008.76-.272.98-.992.964-2.016-.036-4.032-.02-6.048-.008-2.072.012-2.86.78-2.884,2.856-.024,1.936.016,3.868-.02,5.812-.009.66.2.908.884.9,2.68-.028,5.368-.012,8.056-.012C969.862,60.9,969.9,60.984,969.81,61.916Z" transform="translate(-940.25 -40)" fill="#ff6e0c" fill-rule="evenodd"/>
  </g>
</svg>
