<?xml version="1.0" encoding="UTF-8"?>
<svg id="Laag_2" data-name="Laag 2" xmlns="http://www.w3.org/2000/svg" viewBox="0 0 23.57 27.35">
  <defs>
    <style>
      .cls-1 {
        fill: none;
        stroke: #000;
        stroke-miterlimit: 10;
        stroke-width: 1.5px;
      }
    </style>
  </defs>
  <g id="Layer_1" data-name="Layer 1">
    <path d="M20.49,2.61c-7.42-.25-13.5,2.49-13.5,2.49v13.9c-.76-.3-1.68-.37-2.61-.14-2.01,.49-3.33,2.18-2.94,3.77s2.33,2.49,4.34,2c1.9-.46,3.18-1.99,2.99-3.5V10.75s4.3-1.5,9.88-1.88v7.72c-.75-.29-1.65-.35-2.57-.13-2.01,.49-3.33,2.18-2.94,3.77,.39,1.59,2.33,2.49,4.34,2,1.76-.43,2.99-1.77,3.01-3.16h0s0-16.45,0-16.45h0Z"/>
    <line class="cls-1" x1="23" y1=".49" x2=".57" y2="26.87"/>
  </g>
</svg>