<svg xmlns="http://www.w3.org/2000/svg" width="157.407" height="180" viewBox="0 0 157.407 180">
  <path id="TikTok_White" d="M152.133,39.538A34.3,34.3,0,0,1,117.868,5.273,5.273,5.273,0,0,0,112.595,0H84.352a5.274,5.274,0,0,0-5.273,5.273V121.067a20.144,20.144,0,1,1-20.145-20.145,5.273,5.273,0,0,0,5.273-5.273V67.405a5.274,5.274,0,0,0-5.273-5.273,58.934,58.934,0,1,0,58.935,58.935V69.811a72.54,72.54,0,0,0,34.265,8.517,5.273,5.273,0,0,0,5.273-5.273V44.812A5.274,5.274,0,0,0,152.133,39.538Zm0,0" fill="#fd6e0d"/>
</svg>
